RBDS023runT35_grf
version=1
nRows=15
nColumns=19
inDegrees=no
endheader
time	ground_force_r_vx	ground_force_r_vy	ground_force_r_vz	ground_force_r_px	ground_force_r_py	ground_force_r_pz	ground_force_r_mx	ground_force_r_my	ground_force_r_mz	ground_force_l_vx	ground_force_l_vy	ground_force_l_vz	ground_force_l_px	ground_force_l_py	ground_force_l_pz	ground_force_l_mx	ground_force_l_my	ground_force_l_mz
      0.00000000	      0.00000000	      0.00000000	      0.00000000	      0.00000000	      0.00000000	      0.00000000	      0.00000000	      0.00000000	      0.00000000	    -60.40185238	    940.56373168	     10.56627336	      2.48650516	      0.00000000	      0.98260498	      0.00000000	    -13.37995756	      0.00000000
      0.00100000	      0.00000000	      0.00000000	      0.00000000	      0.00000000	      0.00000000	      0.00000000	      0.00000000	      0.00000000	      0.00000000	    -67.65729440	    952.04853479	     10.77390470	      2.48598436	      0.00000000	      0.98255428	      0.00000000	    -12.84425020	      0.00000000
      0.00200000	      0.00000000	      0.00000000	      0.00000000	      0.00000000	      0.00000000	      0.00000000	      0.00000000	      0.00000000	      0.00000000	    -74.91273642	    963.53333791	     10.98153603	      2.48546357	      0.00000000	      0.98250358	     -0.00000000	    -12.30854284	     -0.00000000
      0.00300000	      0.00000000	      0.00000000	      0.00000000	      0.00000000	      0.00000000	      0.00000000	      0.00000000	      0.00000000	      0.00000000	    -82.16817844	    975.01814103	     11.18916736	      2.48494277	      0.00000000	      0.98245288	     -0.00000000	    -11.77283549	     -0.00000000
      0.00400000	      0.00000000	      0.00000000	      0.00000000	      0.00000000	      0.00000000	      0.00000000	      0.00000000	      0.00000000	      0.00000000	    -89.31315449	    986.60236381	     11.40569313	      2.48439738	      0.00000000	      0.98240119	     -0.00000000	    -11.24010664	     -0.00000000
      0.00500000	      0.00000000	      0.00000000	      0.00000000	      0.00000000	      0.00000000	      0.00000000	      0.00000000	      0.00000000	      0.00000000	    -96.40289755	    998.23629643	     11.62666613	      2.48383968	      0.00000000	      0.98234901	     -0.00000000	    -10.70886705	     -0.00000000
      0.00600000	      0.00000000	      0.00000000	      0.00000000	      0.00000000	      0.00000000	      0.00000000	      0.00000000	      0.00000000	      0.00000000	   -103.49264060	   1009.87022905	     11.84763912	      2.48328198	      0.00000000	      0.98229682	     -0.00000000	    -10.17762745	     -0.00000000
      0.00700000	      0.00000000	      0.00000000	      0.00000000	      0.00000000	      0.00000000	      0.00000000	      0.00000000	      0.00000000	      0.00000000	   -110.48480173	   1021.56832705	     12.08257661	      2.48270386	      0.00000000	      0.98224329	     -0.00000000	     -9.64994447	     -0.00000000
      0.00800000	      0.00000000	      0.00000000	      0.00000000	      0.00000000	      0.00000000	      0.00000000	      0.00000000	      0.00000000	      0.00000000	   -117.28179900	   1033.39475581	     12.34544309	      2.48208490	      0.00000000	      0.98218704	     -0.00000000	     -9.12937468	     -0.00000000
      0.00900000	      0.00000000	      0.00000000	      0.00000000	      0.00000000	      0.00000000	      0.00000000	      0.00000000	      0.00000000	      0.00000000	   -124.07879627	   1045.22118457	     12.60830957	      2.48146593	      0.00000000	      0.98213079	     -0.00000000	     -8.60880490	     -0.00000000
      0.01000000	      0.00000000	      0.00000000	      0.00000000	      0.00000000	      0.00000000	      0.00000000	      0.00000000	      0.00000000	      0.00000000	   -130.87579354	   1057.04761334	     12.87117606	      2.48084697	      0.00000000	      0.98207454	     -0.00000000	     -8.08823512	     -0.00000000
      0.01100000	      0.00000000	      0.00000000	      0.00000000	      0.00000000	      0.00000000	      0.00000000	      0.00000000	      0.00000000	      0.00000000	   -137.25789289	   1069.10322088	     13.20176967	      2.48014231	      0.00000000	      0.98201180	     -0.00000000	     -7.58404031	     -0.00000000
      0.01200000	      0.00000000	      0.00000000	      0.00000000	      0.00000000	      0.00000000	      0.00000000	      0.00000000	      0.00000000	      0.00000000	   -143.63999224	   1081.15882842	     13.53236328	      2.47943766	      0.00000000	      0.98194906	     -0.00000000	     -7.07984551	     -0.00000000
      0.01300000	      0.00000000	      0.00000000	      0.00000000	      0.00000000	      0.00000000	      0.00000000	      0.00000000	      0.00000000	      0.00000000	   -150.02209159	   1093.21443596	     13.86295690	      2.47873301	      0.00000000	      0.98188631	     -0.00000000	     -6.57565070	     -0.00000000
      0.01400000	      0.00000000	      0.00000000	      0.00000000	      0.00000000	      0.00000000	      0.00000000	      0.00000000	      0.00000000	      0.00000000	   -156.05179361	   1105.43980166	     14.25322751	      2.47795555	      0.00000000	      0.98181780	     -0.00000000	     -6.08572310	     -0.00000000
